<svg width="24" height="24" viewBox="0 0 24 24" fill="none" xmlns="http://www.w3.org/2000/svg">
<g clip-path="url(#clip0_70_107)">
<path d="M8.50006 12C8.4993 11.8684 8.52452 11.7379 8.57429 11.6161C8.62405 11.4943 8.69738 11.3834 8.79006 11.29L12.7901 7.29C12.8833 7.19676 12.994 7.1228 13.1158 7.07234C13.2376 7.02188 13.3682 6.99591 13.5001 6.99591C13.6319 6.99591 13.7625 7.02188 13.8843 7.07234C14.0061 7.1228 14.1168 7.19676 14.2101 7.29C14.3033 7.38324 14.3773 7.49393 14.4277 7.61575C14.4782 7.73758 14.5042 7.86814 14.5042 8C14.5042 8.13186 14.4782 8.26243 14.4277 8.38425C14.3773 8.50607 14.3033 8.61676 14.2101 8.71L10.9001 12L14.0801 15.3C14.1823 15.392 14.2646 15.5041 14.3215 15.6293C14.3785 15.7545 14.4091 15.8902 14.4112 16.0277C14.4134 16.1653 14.3872 16.3018 14.3342 16.4287C14.2812 16.5557 14.2026 16.6703 14.1033 16.7655C14.004 16.8607 13.8861 16.9344 13.757 16.9819C13.6279 17.0295 13.4904 17.0499 13.353 17.0418C13.2157 17.0338 13.0815 16.9975 12.9588 16.9353C12.8361 16.873 12.7276 16.7861 12.6401 16.68L8.78006 12.68C8.60374 12.4971 8.50364 12.254 8.50006 12Z" fill="#2D2D2D"/>
</g>
<defs>
<clipPath id="clip0_70_107">
<rect width="24" height="24" fill="white" transform="translate(24) rotate(90)"/>
</clipPath>
</defs>
</svg>
