<svg width="24" height="24" viewBox="0 0 24 24" fill="none" xmlns="http://www.w3.org/2000/svg">
<g clip-path="url(#clip0_70_113)">
<path d="M15.4999 12C15.5007 12.1316 15.4755 12.2621 15.4257 12.3839C15.3759 12.5057 15.3026 12.6166 15.2099 12.71L11.2099 16.71C11.1167 16.8032 11.006 16.8772 10.8842 16.9277C10.7624 16.9781 10.6318 17.0041 10.4999 17.0041C10.3681 17.0041 10.2375 16.9781 10.1157 16.9277C9.99387 16.8772 9.88318 16.8032 9.78994 16.71C9.6967 16.6168 9.62274 16.5061 9.57228 16.3842C9.52182 16.2624 9.49585 16.1319 9.49585 16C9.49585 15.8681 9.52182 15.7376 9.57228 15.6157C9.62274 15.4939 9.6967 15.3832 9.78994 15.29L13.0999 12L9.91994 8.7C9.81765 8.60801 9.73544 8.4959 9.67846 8.37069C9.62147 8.24547 9.59093 8.10985 9.58875 7.9723C9.58657 7.83474 9.6128 7.69822 9.66579 7.57126C9.71878 7.44431 9.7974 7.32965 9.89672 7.23447C9.99605 7.13928 10.1139 7.06561 10.243 7.01807C10.3721 6.97052 10.5096 6.95013 10.647 6.95816C10.7843 6.96619 10.9185 7.00247 11.0412 7.06473C11.1639 7.12699 11.2724 7.21389 11.3599 7.32L15.2199 11.32C15.3963 11.5029 15.4964 11.746 15.4999 12Z" fill="#2D2D2D"/>
</g>
<defs>
<clipPath id="clip0_70_113">
<rect width="24" height="24" fill="white" transform="translate(0 24) rotate(-90)"/>
</clipPath>
</defs>
</svg>
