<svg width="17" height="16" viewBox="0 0 17 16" fill="none" xmlns="http://www.w3.org/2000/svg">
<path d="M6.82339 12C6.73198 11.9997 6.64161 11.9806 6.55788 11.9439C6.47416 11.9072 6.39888 11.8537 6.33672 11.7867L3.09672 8.34003C2.97561 8.21096 2.91073 8.03906 2.91635 7.86215C2.92198 7.68524 2.99765 7.51781 3.12672 7.3967C3.2558 7.27558 3.42769 7.2107 3.6046 7.21633C3.78151 7.22195 3.94894 7.29763 4.07006 7.4267L6.81672 10.3534L12.4234 4.22003C12.4803 4.14918 12.5511 4.09071 12.6314 4.04821C12.7117 4.00571 12.7999 3.98007 12.8904 3.97288C12.981 3.96569 13.0721 3.9771 13.1581 4.0064C13.2442 4.0357 13.3233 4.08227 13.3906 4.14326C13.458 4.20425 13.5122 4.27837 13.5499 4.36106C13.5875 4.44375 13.6079 4.53327 13.6097 4.62412C13.6115 4.71497 13.5948 4.80524 13.5604 4.88937C13.5261 4.9735 13.4749 5.04973 13.4101 5.11336L7.31672 11.78C7.25515 11.8483 7.18013 11.903 7.09638 11.9409C7.01263 11.9788 6.92196 11.9989 6.83006 12H6.82339Z" fill="#2D2D2D"/>
</svg>
