<svg width="17" height="17" viewBox="0 0 17 17" fill="none" xmlns="http://www.w3.org/2000/svg">
<path d="M9.68996 8.5L12.5566 5.64C12.6822 5.51446 12.7527 5.3442 12.7527 5.16666C12.7527 4.98913 12.6822 4.81887 12.5566 4.69333C12.4311 4.56779 12.2608 4.49727 12.0833 4.49727C11.9058 4.49727 11.7355 4.56779 11.61 4.69333L8.74996 7.56L5.88996 4.69333C5.76442 4.56779 5.59416 4.49727 5.41663 4.49727C5.23909 4.49727 5.06883 4.56779 4.94329 4.69333C4.81776 4.81887 4.74723 4.98913 4.74723 5.16666C4.74723 5.3442 4.81776 5.51446 4.94329 5.64L7.80996 8.5L4.94329 11.36C4.88081 11.422 4.83121 11.4957 4.79737 11.5769C4.76352 11.6582 4.74609 11.7453 4.74609 11.8333C4.74609 11.9213 4.76352 12.0085 4.79737 12.0897C4.83121 12.171 4.88081 12.2447 4.94329 12.3067C5.00527 12.3691 5.079 12.4187 5.16024 12.4526C5.24148 12.4864 5.32862 12.5039 5.41663 12.5039C5.50463 12.5039 5.59177 12.4864 5.67301 12.4526C5.75425 12.4187 5.82798 12.3691 5.88996 12.3067L8.74996 9.44L11.61 12.3067C11.6719 12.3691 11.7457 12.4187 11.8269 12.4526C11.9081 12.4864 11.9953 12.5039 12.0833 12.5039C12.1713 12.5039 12.2584 12.4864 12.3397 12.4526C12.4209 12.4187 12.4947 12.3691 12.5566 12.3067C12.6191 12.2447 12.6687 12.171 12.7026 12.0897C12.7364 12.0085 12.7538 11.9213 12.7538 11.8333C12.7538 11.7453 12.7364 11.6582 12.7026 11.5769C12.6687 11.4957 12.6191 11.422 12.5566 11.36L9.68996 8.5Z" fill="black"/>
</svg>
