<svg width="24" height="24" viewBox="0 0 24 24" fill="none" xmlns="http://www.w3.org/2000/svg">
<g clip-path="url(#clip0_103_330)">
<path d="M21.5999 11.22L16.9999 7.52V5C17.0243 4.49494 16.8476 4.00078 16.5083 3.62587C16.169 3.25095 15.6948 3.02588 15.1899 3H3.78986C3.28842 3.03096 2.81938 3.25823 2.48434 3.63258C2.14929 4.00693 1.97523 4.49822 1.99986 5V15C1.99058 15.3971 2.09975 15.788 2.31347 16.1228C2.52718 16.4576 2.83576 16.7212 3.19986 16.88C3.01569 17.3305 2.94392 17.8191 2.99072 18.3036C3.03753 18.7881 3.20152 19.2539 3.46853 19.6609C3.73554 20.0678 4.09756 20.4037 4.52336 20.6395C4.94915 20.8753 5.42593 21.004 5.91255 21.0144C6.39917 21.0249 6.88102 20.9167 7.31652 20.6994C7.75203 20.482 8.12811 20.1619 8.41231 19.7668C8.69651 19.3717 8.8803 18.9133 8.94781 18.4313C9.01533 17.9492 8.96455 17.458 8.79986 17H15.1599C14.9954 17.4531 14.9425 17.9392 15.0058 18.4171C15.069 18.895 15.2465 19.3506 15.5232 19.7454C15.7998 20.1401 16.1676 20.4624 16.5952 20.6849C17.0228 20.9074 17.4978 21.0235 17.9799 21.0235C18.4619 21.0235 18.9369 20.9074 19.3645 20.6849C19.7921 20.4624 20.1599 20.1401 20.4365 19.7454C20.7132 19.3506 20.8907 18.895 20.9539 18.4171C21.0172 17.9392 20.9643 17.4531 20.7999 17H20.9999C21.2651 17 21.5194 16.8946 21.707 16.7071C21.8945 16.5196 21.9999 16.2652 21.9999 16V12C21.9968 11.8481 21.9592 11.699 21.8899 11.5638C21.8206 11.4287 21.7214 11.3111 21.5999 11.22ZM19.9999 12.48V15H16.9999V10.08L19.9999 12.48ZM6.99986 18C6.99986 18.1978 6.94121 18.3911 6.83133 18.5556C6.72145 18.72 6.56527 18.8482 6.38254 18.9239C6.19981 18.9996 5.99875 19.0194 5.80477 18.9808C5.61079 18.9422 5.4326 18.847 5.29275 18.7071C5.1529 18.5673 5.05766 18.3891 5.01907 18.1951C4.98049 18.0011 5.00029 17.8 5.07598 17.6173C5.15167 17.4346 5.27984 17.2784 5.44429 17.1685C5.60874 17.0586 5.80208 17 5.99986 17C6.26507 17 6.51943 17.1054 6.70696 17.2929C6.8945 17.4804 6.99986 17.7348 6.99986 18ZM11.9999 15H3.99986V5H14.9999V15H11.9999ZM18.9999 18C18.9999 18.1978 18.9412 18.3911 18.8313 18.5556C18.7214 18.72 18.5653 18.8482 18.3825 18.9239C18.1998 18.9996 17.9987 19.0194 17.8048 18.9808C17.6108 18.9422 17.4326 18.847 17.2927 18.7071C17.1529 18.5673 17.0577 18.3891 17.0191 18.1951C16.9805 18.0011 17.0003 17.8 17.076 17.6173C17.1517 17.4346 17.2798 17.2784 17.4443 17.1685C17.6087 17.0586 17.8021 17 17.9999 17C18.2651 17 18.5194 17.1054 18.707 17.2929C18.8945 17.4804 18.9999 17.7348 18.9999 18Z" fill="#2D2D2D"/>
</g>
<defs>
<clipPath id="clip0_103_330">
<rect width="24" height="24" fill="white"/>
</clipPath>
</defs>
</svg>
