<svg width="32" height="32" viewBox="0 0 32 32" fill="none" xmlns="http://www.w3.org/2000/svg">
<path d="M25.3335 14.6667H17.3335V6.66666C17.3335 6.31304 17.193 5.9739 16.943 5.72385C16.6929 5.4738 16.3538 5.33333 16.0002 5.33333C15.6465 5.33333 15.3074 5.4738 15.0574 5.72385C14.8073 5.9739 14.6668 6.31304 14.6668 6.66666V14.6667H6.66683C6.31321 14.6667 5.97407 14.8071 5.72402 15.0572C5.47397 15.3072 5.3335 15.6464 5.3335 16C5.3335 16.3536 5.47397 16.6928 5.72402 16.9428C5.97407 17.1929 6.31321 17.3333 6.66683 17.3333H14.6668V25.3333C14.6668 25.687 14.8073 26.0261 15.0574 26.2761C15.3074 26.5262 15.6465 26.6667 16.0002 26.6667C16.3538 26.6667 16.6929 26.5262 16.943 26.2761C17.193 26.0261 17.3335 25.687 17.3335 25.3333V17.3333H25.3335C25.6871 17.3333 26.0263 17.1929 26.2763 16.9428C26.5264 16.6928 26.6668 16.3536 26.6668 16C26.6668 15.6464 26.5264 15.3072 26.2763 15.0572C26.0263 14.8071 25.6871 14.6667 25.3335 14.6667Z" fill="#2D2D2D"/>
</svg>
